<svg width="127" height="54" viewBox="0 0 127 54" fill="none" xmlns="http://www.w3.org/2000/svg">
<path d="M3.07109 49.2016L2.63236 50.8432L14.1107 50.833C14.5188 50.833 14.7228 50.986 14.7228 51.2919C14.7228 51.3666 14.7092 51.4516 14.682 51.5468L14.3963 52.5664C14.2739 53.0423 13.961 53.2802 13.4577 53.2802H2.23444C0.744815 53.2802 0 52.7024 0 51.5468C0 51.2477 0.0510147 50.9078 0.153044 50.5271L1.52024 45.4289C2.00998 43.5935 3.19352 42.6758 5.07086 42.6758H16.3145C16.7158 42.6758 16.9165 42.8254 16.9165 43.1245C16.9165 43.1992 16.9029 43.2842 16.8757 43.3794L16.59 44.4092C16.4607 44.8851 16.1445 45.123 15.6411 45.123H4.1526L3.71387 46.7544H15.2024C15.6105 46.7544 15.8146 46.9074 15.8146 47.2133C15.8146 47.288 15.801 47.373 15.7737 47.4682L15.5085 48.4878C15.3792 48.9637 15.0595 49.2016 14.5494 49.2016H3.07109Z" fill="white"/>
<path d="M19.4876 45.1128L19.0387 46.7544H28.7213L29.1702 45.123L19.4876 45.1128ZM18.3959 49.2016L17.947 50.833H27.6296L28.0785 49.2016H18.3959ZM17.396 43.3896C17.5184 42.9137 17.8381 42.6758 18.3551 42.6758H29.5681C31.051 42.6758 31.7924 43.2536 31.7924 44.4092C31.7924 44.7083 31.7413 45.0482 31.6393 45.4289L31.5067 45.9387C31.2074 47.0331 30.7585 47.7129 30.1599 47.978C30.4388 48.1411 30.5782 48.4538 30.5782 48.9161C30.5782 49.222 30.5204 49.589 30.4048 50.0173L30.2619 50.5271C29.7722 52.3625 28.592 53.2802 26.7215 53.2802H15.5085C15.1004 53.2734 14.8963 53.117 14.8963 52.8111C14.8963 52.7364 14.9065 52.6548 14.9269 52.5664L17.396 43.3896Z" fill="white"/>
<path d="M34.792 45.1128L34.0676 47.7741H43.7502L44.4746 45.123L34.792 45.1128ZM32.7004 43.3896C32.8297 42.9137 33.146 42.6758 33.6493 42.6758H44.8725C46.3554 42.6758 47.0968 43.2536 47.0968 44.4092C47.0968 44.7083 47.0458 45.0482 46.9437 45.4289L46.3826 47.4682C45.8928 49.3035 44.7127 50.2212 42.8422 50.2212H33.4146L32.782 52.5664C32.6596 53.0423 32.3433 53.2802 31.8332 53.2802H30.8129C30.4048 53.2802 30.2007 53.1238 30.2007 52.8111C30.2007 52.7432 30.2109 52.6616 30.2313 52.5664L32.7004 43.3896Z" fill="white"/>
<path d="M50.0964 45.1128L48.566 50.833L58.2486 50.8432L59.7892 45.123L50.0964 45.1128ZM60.1769 42.6758C61.6598 42.6758 62.4012 43.2536 62.4012 44.4092C62.4012 44.7083 62.3502 45.0482 62.2481 45.4289L60.8809 50.5271C60.3912 52.3625 59.2111 53.2802 57.3405 53.2802H48.1579C46.6751 53.2802 45.9336 52.7024 45.9336 51.5468C45.9336 51.2477 45.9847 50.9078 46.0867 50.5271L47.4539 45.4289C47.9436 43.5935 49.1272 42.6758 51.0045 42.6758H60.1769Z" fill="white"/>
<path d="M64.2479 49.3749L63.3909 52.5664C63.2684 53.0423 62.9521 53.2802 62.442 53.2802H61.4217C61.0136 53.2802 60.8095 53.1238 60.8095 52.8111C60.8095 52.7432 60.8197 52.6616 60.8401 52.5664L63.299 43.3998C63.4351 42.9239 63.7548 42.686 64.2581 42.686H65.2784C65.6865 42.686 65.8906 42.839 65.8906 43.1448C65.8906 43.2196 65.877 43.3046 65.8498 43.3998L65.0029 46.5811C64.9621 46.6151 64.9417 46.6423 64.9417 46.6626V46.6728C64.9417 46.6796 64.9451 46.683 64.9519 46.683C65.0131 46.683 65.1594 46.6321 65.3906 46.5301L73.8795 42.6758H78.8789L67.3802 47.978L76.0425 53.2802H71.0431L64.6152 49.4259C64.4384 49.3239 64.3193 49.2729 64.2581 49.2729C64.2445 49.2729 64.2343 49.2798 64.2275 49.2933C64.2275 49.3137 64.2343 49.3409 64.2479 49.3749Z" fill="white"/>
<path d="M80.7053 45.1128L79.9809 47.7741H89.6634L90.3879 45.123L80.7053 45.1128ZM78.6137 43.3896C78.7429 42.9137 79.0592 42.6758 79.5625 42.6758H90.7858C92.2686 42.6758 93.01 43.2536 93.01 44.4092C93.01 44.7083 92.959 45.0482 92.857 45.4289L92.2958 47.4682C91.8061 49.3035 90.6259 50.2212 88.7554 50.2212H79.3279L78.6953 52.5664C78.5728 53.0423 78.2566 53.2802 77.7464 53.2802H76.7261C76.318 53.2802 76.1139 53.1238 76.1139 52.8111C76.1139 52.7432 76.1241 52.6616 76.1445 52.5664L78.6137 43.3896Z" fill="white"/>
<path d="M95.8872 51.2409L93.9691 53.2802H91.0919L99.5705 44.3174C100.584 43.223 101.567 42.6758 102.519 42.6758C103.471 42.6758 104.169 43.223 104.611 44.3174L108.274 53.2802H105.396L104.56 51.2409H95.8872ZM103.56 48.7937L101.948 44.8375L98.2135 48.7937H103.56Z" fill="white"/>
<path d="M112.263 49.2016L111.355 52.5664C111.232 53.0423 110.916 53.2802 110.406 53.2802H109.386C108.978 53.2802 108.774 53.1238 108.774 52.8111C108.774 52.7432 108.784 52.6616 108.804 52.5664L111.314 43.1856H111.324C111.413 42.8458 111.712 42.6758 112.222 42.6758H113.242C113.651 42.6758 113.855 42.8322 113.855 43.1448C113.855 43.2128 113.844 43.2944 113.824 43.3896L112.916 46.7544H122.609L123.568 43.1856H123.578C123.666 42.8458 123.966 42.6758 124.476 42.6758H125.496C125.904 42.6758 126.108 42.8322 126.108 43.1448C126.108 43.2128 126.098 43.2944 126.078 43.3896L123.609 52.5664C123.486 53.0423 123.17 53.2802 122.66 53.2802H121.639C121.231 53.2802 121.027 53.1238 121.027 52.8111C121.027 52.7432 121.037 52.6616 121.058 52.5664L121.966 49.2016H112.263Z" fill="white"/>
<path fill-rule="evenodd" clip-rule="evenodd" d="M87.6603 16.3869C87.6603 25.4372 76.7458 32.7739 63.282 32.7739C49.8183 32.7739 38.9038 25.4372 38.9038 16.3869C38.9038 7.33668 49.8183 0 63.282 0C76.7458 0 87.6603 7.33668 87.6603 16.3869ZM77.6996 26.5953H73.4962L63.4973 20.6007C63.2222 20.4421 63.037 20.3629 62.9418 20.3629C62.9207 20.3629 62.9048 20.3734 62.8942 20.3946C62.8942 20.4263 62.9048 20.4686 62.9259 20.5214L61.5928 25.4852C61.4023 26.2253 60.9103 26.5953 60.1167 26.5953H58.5296C57.8948 26.5953 57.5773 26.3521 57.5773 25.8658C57.5773 25.7601 57.5932 25.6332 57.625 25.4852L58.6815 21.5471H43.1967C44.194 23.068 45.6428 24.5018 47.5285 25.7694C51.445 28.4021 57.0069 30.1165 63.282 30.1165C68.8743 30.1165 73.9 28.7549 77.6996 26.5953ZM48.2303 6.55339C52.0962 4.17766 57.3728 2.65734 63.282 2.65734C69.5572 2.65734 75.1191 4.3718 79.0356 7.00447C80.4493 7.95473 81.6174 8.99847 82.5338 10.1023H77.9084L64.7035 16.0969C64.3438 16.2554 64.1163 16.3347 64.0211 16.3347C64.0105 16.3347 64.0052 16.3295 64.0052 16.3189V16.303C64.0052 16.2713 64.0369 16.229 64.1004 16.1762L65.4177 11.2282C65.4601 11.0802 65.4812 10.9481 65.4812 10.8318C65.4812 10.356 65.1638 10.1181 64.5289 10.1181H62.9418C62.1588 10.1181 61.6615 10.4882 61.4499 11.2282L61.157 12.3202H45.1363L45.7567 10.0135H62.0031C62.7149 10.0135 63.1622 9.67707 63.345 9.00428L63.7489 7.54816C63.7874 7.4136 63.8067 7.29346 63.8067 7.18774C63.8067 6.76484 63.5229 6.55339 62.9554 6.55339H48.2303ZM83.3391 11.184L67.7984 18.3488L79.4527 25.4812C83.1122 22.8833 85.0008 19.6371 85.0008 16.3869C85.0008 14.6168 84.4406 12.8477 83.3391 11.184ZM44.2273 15.7803L43.6069 18.1014L59.6098 18.0872L60.2287 15.7803H44.2273Z" fill="white"/>
</svg>
